<?xml version="1.0" standalone="no"?>
<!DOCTYPE svg PUBLIC "-//W3C//DTD SVG 20010904//EN"
 "http://www.w3.org/TR/2001/REC-SVG-20010904/DTD/svg10.dtd">
<svg version="1.0" xmlns="http://www.w3.org/2000/svg"
 width="1001.000000pt" height="1001.000000pt" viewBox="0 0 1001.000000 1001.000000"
 preserveAspectRatio="xMidYMid meet">

<g transform="translate(0.000000,1001.000000) scale(0.100000,-0.100000)"
fill="#000000" stroke="none">
<path d="M4980 8735 c-22 -26 -317 -218 -460 -300 -647 -367 -1387 -613 -2120
-704 -177 -22 -442 -41 -579 -41 l-83 0 6 -247 c24 -972 61 -1424 162 -1973
128 -698 378 -1363 709 -1885 97 -154 94 -151 154 -169 131 -40 173 -78 383
-346 129 -164 423 -468 558 -577 164 -131 364 -264 506 -336 l70 -35 279 -4
279 -3 76 245 c42 135 78 251 81 258 2 8 41 -104 84 -247 l80 -262 280 7 280
6 69 35 c391 197 807 568 1163 1038 101 134 163 182 283 220 54 17 57 20 122
119 294 450 522 992 666 1586 152 621 213 1211 237 2296 l7 271 -184 6 c-796
29 -1560 223 -2293 582 -277 136 -559 303 -728 431 -64 49 -69 51 -87 29z
m255 -629 c397 -12 892 -96 1296 -220 75 -23 88 -31 99 -55 6 -16 25 -41 41
-57 l29 -28 0 -191 0 -191 -34 -12 c-19 -7 -53 -31 -76 -54 l-43 -40 -131 35
c-494 136 -995 196 -1531 184 -458 -10 -845 -64 -1272 -179 l-153 -41 -41 41
c-22 23 -56 47 -75 54 l-34 12 0 191 0 191 29 28 c16 16 35 41 41 57 11 24 24
32 99 55 275 85 637 159 943 194 167 20 531 39 603 33 17 -1 111 -5 210 -7z
m-2670 -934 c70 -77 121 -94 280 -93 134 1 316 -15 409 -36 57 -13 76 -22 111
-57 42 -43 63 -85 42 -87 -33 -3 -67 5 -110 27 -26 13 -45 19 -42 14 21 -34
174 -75 189 -51 4 6 -7 31 -23 55 -22 31 -27 46 -18 49 7 3 5 6 -6 6 -10 1
-33 17 -52 36 -25 24 -57 41 -115 59 -102 33 -153 59 -179 92 -36 45 -26 55
26 26 25 -14 122 -49 214 -77 179 -55 245 -88 279 -135 l21 -30 -25 0 c-14 0
-60 18 -103 41 -64 33 -74 37 -57 17 12 -12 19 -29 17 -35 -3 -8 4 -13 19 -13
40 0 241 -69 264 -91 12 -11 24 -38 28 -59 6 -37 9 -39 60 -54 30 -9 78 -16
108 -17 29 0 62 -4 73 -8 12 -5 30 -3 48 6 30 15 31 12 18 -35 -6 -18 -6 -45
-1 -61 6 -21 4 -33 -4 -40 -7 -6 -25 -35 -40 -65 -27 -54 -68 -102 -53 -64 3
9 9 33 13 52 6 34 5 36 -20 36 -21 0 -33 -11 -60 -52 -36 -57 -73 -95 -82 -86
-3 3 1 29 10 57 l15 51 -46 37 c-42 34 -51 38 -102 37 -31 -1 -70 -5 -88 -9
-24 -5 -41 -2 -71 15 -44 25 -72 21 -72 -9 0 -42 61 -186 101 -238 l41 -55 40
39 39 38 -3 -44 c-3 -51 11 -62 41 -32 25 25 31 18 31 -34 0 -59 -22 -77 -99
-76 -73 0 -95 10 -110 53 -25 68 -38 84 -99 125 -92 62 -156 80 -234 65 -43
-8 -66 -8 -73 -1 -5 5 -10 35 -9 64 0 71 43 138 91 143 26 3 38 -5 87 -60 57
-63 57 -63 41 -23 -37 92 -103 126 -207 106 -188 -37 -310 -179 -312 -362 -1
-76 -1 -76 40 -121 23 -25 45 -54 48 -65 6 -19 8 -20 41 -4 20 9 38 27 44 43
6 18 19 29 38 33 15 4 35 10 43 16 44 27 62 32 87 23 33 -11 40 -30 15 -36
-11 -3 -21 -16 -24 -30 -4 -22 0 -26 39 -36 45 -13 118 -70 128 -103 5 -14 16
-19 41 -19 21 0 34 5 34 13 0 7 9 18 20 25 17 10 20 9 26 -13 l6 -25 462 0
461 0 27 -92 26 -93 1 93 1 93 698 -3 697 -3 46 -27 c25 -15 63 -46 86 -71 36
-39 41 -51 47 -108 8 -79 -5 -155 -32 -182 l-21 -20 29 -34 c24 -27 30 -43 30
-80 0 -25 3 -44 6 -40 3 3 28 122 55 264 27 142 51 268 54 281 5 22 5 22 225
22 l220 0 0 -22 c1 -23 1 -23 15 2 8 14 14 35 15 48 0 12 3 22 8 22 13 -1 42
-27 42 -39 0 -6 15 -11 35 -11 19 0 35 4 35 10 0 20 66 84 105 101 65 30 97
25 148 -23 72 -68 78 -89 71 -221 l-7 -114 77 -10 c47 -7 85 -18 97 -29 10 -9
17 -19 15 -21 -2 -2 -29 -6 -61 -8 -32 -2 -60 -6 -62 -9 -13 -13 10 -35 68
-65 58 -30 61 -31 34 -7 -16 14 -33 25 -37 26 -5 0 -8 7 -8 16 0 13 10 15 55
12 30 -1 55 -1 55 1 0 2 -11 19 -26 38 -34 45 -76 65 -140 65 l-54 1 0 66 c1
41 6 75 16 91 14 24 15 24 11 3 -6 -28 4 -29 27 -4 16 18 19 40 25 172 1 17
19 47 48 80 l48 52 -1 76 c-3 189 -129 330 -322 362 -103 17 -147 -5 -194 -94
-28 -55 -17 -55 28 0 50 62 63 72 96 73 53 0 113 -121 91 -185 -8 -23 -15 -29
-34 -28 -115 12 -155 8 -219 -24 -95 -47 -136 -84 -155 -143 -20 -60 -40 -73
-117 -74 -70 -1 -98 20 -100 77 -2 48 15 68 32 37 6 -11 19 -20 28 -18 13 3
16 13 13 48 l-3 45 37 -35 37 -35 43 47 c31 34 52 72 74 133 35 98 37 108 16
125 -12 10 -23 8 -59 -11 -41 -21 -47 -22 -99 -10 -72 18 -115 9 -165 -34
l-41 -36 15 -50 c9 -28 13 -54 10 -57 -9 -9 -46 29 -82 86 -26 40 -40 52 -59
52 -27 0 -30 -9 -16 -58 14 -47 -4 -39 -35 16 -15 26 -35 59 -45 74 -15 21
-17 33 -9 52 5 15 5 37 -1 58 -13 46 -12 50 11 38 22 -12 136 -5 218 12 56 12
82 36 82 75 0 12 10 31 21 42 23 22 226 91 266 91 15 0 23 5 20 13 -2 6 5 22
16 34 16 18 5 15 -57 -17 -42 -22 -89 -40 -103 -40 l-26 0 25 33 c36 47 104
80 278 132 85 25 179 59 208 75 28 15 52 25 52 22 0 -4 -9 -21 -20 -39 -22
-37 -63 -60 -178 -98 -59 -19 -92 -37 -116 -61 -18 -19 -39 -34 -46 -34 -7 0
-11 -3 -7 -6 3 -4 -7 -26 -24 -50 -17 -24 -27 -49 -23 -55 11 -18 103 -1 152
27 57 34 53 40 -6 10 -46 -23 -69 -29 -105 -27 -16 1 -16 4 3 40 28 57 76 89
156 106 94 20 270 35 402 34 169 -1 220 20 302 123 50 63 63 56 35 -17 -29
-78 -120 -146 -240 -180 -90 -26 -117 -52 -35 -34 50 11 131 2 109 -12 -8 -5
-26 -9 -40 -9 -15 0 -33 -7 -40 -16 -12 -15 -10 -16 20 -9 33 7 117 -10 126
-26 3 -4 -16 -7 -41 -7 -51 0 -68 -10 -62 -38 3 -16 16 -20 93 -25 54 -3 103
-12 122 -22 39 -21 55 -42 24 -32 -30 9 -129 11 -138 2 -15 -16 36 -46 112
-67 80 -21 180 -70 158 -77 -6 -2 -41 3 -79 12 -66 15 -95 10 -80 -14 4 -6 39
-29 79 -52 70 -41 154 -115 143 -127 -3 -3 -14 2 -23 10 -28 24 -117 66 -130
61 -35 -13 -4 -58 69 -102 48 -29 113 -103 145 -164 23 -47 28 -94 5 -51 -18
34 -82 107 -115 131 -53 39 -65 27 -21 -19 76 -80 102 -136 35 -75 -38 35 -77
54 -88 43 -3 -3 19 -32 49 -65 61 -67 98 -134 98 -177 l0 -28 -23 31 c-36 50
-106 123 -117 123 -19 0 -10 -36 20 -83 50 -80 70 -125 70 -161 0 -50 -14 -52
-28 -3 -13 51 -66 117 -93 117 -23 0 -24 -19 -3 -89 18 -63 21 -128 5 -144 -8
-8 -11 -5 -11 13 0 25 -46 110 -59 110 -11 0 -21 -25 -21 -52 0 -32 -87 -192
-132 -243 -38 -43 -45 -47 -77 -42 -20 3 -45 8 -56 12 -11 3 27 -16 85 -44
145 -70 152 -75 178 -111 35 -51 29 -65 -17 -38 -33 19 -43 20 -65 10 -59 -27
-17 -103 99 -182 73 -49 88 -63 98 -92 6 -16 0 -18 -42 -16 -102 5 -107 -43
-16 -139 59 -62 96 -125 81 -140 -3 -4 -17 -1 -31 5 -35 16 -60 15 -76 -4 -11
-13 -10 -26 5 -77 44 -155 48 -177 41 -214 -6 -34 -9 -36 -19 -20 -33 54 -30
56 -95 -56 -61 -103 -91 -142 -78 -101 3 10 19 59 36 108 36 102 61 241 61
338 0 203 -81 458 -184 583 -28 33 -48 26 -26 -10 109 -172 139 -244 159 -373
24 -154 8 -362 -38 -495 -57 -164 -167 -320 -293 -412 -25 -19 -28 -28 -42
-160 -26 -239 -58 -356 -128 -463 -79 -121 -203 -210 -368 -266 -161 -53 -265
-45 -530 44 -310 104 -394 118 -495 83 -104 -35 -186 -159 -155 -233 16 -38
50 -62 119 -85 47 -15 77 -17 199 -12 l144 6 -49 -31 c-110 -70 -233 -96 -356
-75 l-48 8 16 -31 c9 -18 14 -34 12 -37 -11 -11 -88 40 -111 73 l-25 37 -16
-39 -17 -39 -19 44 c-30 69 -44 168 -32 229 11 57 11 57 -19 41 -38 -20 -31 1
26 76 31 41 53 75 49 76 -5 0 -30 0 -58 0 l-50 -1 30 25 c56 48 164 116 222
140 l58 23 -43 17 c-23 10 -42 21 -42 25 0 13 116 31 193 31 42 -1 97 -9 131
-20 64 -20 102 -16 120 11 8 13 5 22 -9 39 l-20 22 40 -7 c22 -4 85 -29 140
-56 123 -60 136 -64 169 -48 25 11 27 15 21 50 l-7 38 86 -41 c112 -54 162
-60 202 -26 40 36 25 58 -50 73 -32 7 -60 14 -63 17 -15 16 78 18 156 3 106
-19 143 -20 159 -4 21 21 14 54 -15 68 -28 13 -28 13 31 27 32 7 68 20 79 28
32 22 39 18 32 -18 -31 -144 -172 -270 -343 -306 -78 -16 -222 -13 -447 9
-402 41 -497 23 -624 -116 -92 -100 -105 -217 -33 -296 33 -37 98 -76 108 -65
3 2 -9 10 -26 17 -36 15 -87 71 -96 106 -4 14 -4 49 -2 79 9 104 98 202 223
246 100 35 282 37 481 5 332 -53 540 -21 665 104 80 80 106 150 143 388 3 22
1 22 -48 15 -94 -14 -286 -9 -356 10 -72 20 -163 60 -228 101 -58 36 -48 44
12 10 35 -19 50 -24 59 -15 15 15 6 21 -69 42 -37 10 -85 30 -107 45 l-39 26
-51 -22 c-29 -12 -54 -24 -56 -26 -2 -2 9 -18 24 -35 24 -29 25 -33 10 -42
-10 -5 -33 -7 -52 -4 -46 8 -79 -6 -87 -37 -3 -14 -11 -26 -16 -26 -6 0 -10
-4 -10 -10 0 -5 6 -10 13 -10 6 0 28 -30 47 -68 29 -55 41 -69 70 -79 30 -9
32 -12 16 -19 -31 -12 -96 17 -129 58 -22 27 -30 48 -30 77 0 49 -13 45 -19
-6 -3 -26 1 -42 14 -55 10 -10 18 -26 18 -35 0 -9 15 -32 33 -51 31 -33 31
-34 7 -27 -38 10 -73 38 -90 71 -9 17 -21 29 -28 26 -20 -6 -37 44 -24 73 7
14 12 41 12 60 0 23 6 38 19 44 10 6 26 26 35 45 19 40 45 60 135 105 l63 32
-7 56 c-4 31 -16 84 -26 117 -68 211 -41 375 83 511 28 31 52 54 54 52 3 -2
-2 -22 -10 -44 -89 -252 8 -519 232 -636 164 -87 351 -88 527 -3 192 92 303
263 321 492 11 148 -19 267 -96 379 l-31 45 -213 0 -213 0 -18 -35 c-11 -19
-16 -37 -12 -41 4 -4 42 4 85 19 94 32 181 51 207 45 15 -3 0 -14 -51 -41 -75
-38 -95 -61 -66 -76 12 -6 35 -2 76 16 48 20 68 23 107 18 56 -8 56 -16 0 -35
-52 -17 -78 -44 -62 -63 6 -8 46 -22 89 -31 106 -23 114 -30 47 -45 -53 -12
-66 -23 -45 -36 22 -14 50 -86 50 -130 0 -25 -4 -45 -8 -45 -5 0 -30 31 -56
70 -146 213 -356 303 -557 240 -145 -46 -232 -156 -231 -292 1 -27 3 -52 6
-55 2 -3 17 19 32 49 31 60 44 47 25 -27 -17 -67 -13 -122 11 -168 l22 -42 32
100 c18 55 33 96 34 90 1 -5 1 -54 0 -108 -2 -106 12 -147 49 -147 24 0 31 18
32 83 1 59 23 131 33 107 3 -8 17 -49 32 -90 32 -91 77 -160 104 -160 25 0 25
3 -5 80 -14 35 -25 68 -25 73 0 5 26 -15 58 -44 81 -74 153 -103 206 -83 11 4
0 14 -37 32 -45 23 -97 78 -97 102 0 4 19 1 41 -7 94 -32 204 -12 293 54 l49
36 -29 15 c-16 8 -31 16 -33 18 -2 1 13 17 33 35 37 32 56 60 89 134 l18 40
-5 -75 c-11 -184 -101 -337 -261 -441 -89 -59 -146 -72 -284 -66 -147 6 -228
30 -313 95 -148 112 -206 274 -173 480 14 83 60 238 74 246 4 3 13 -11 20 -30
20 -56 47 -42 94 52 14 28 42 72 62 98 34 45 36 52 30 96 -5 39 -10 48 -25 47
-10 -1 -16 -5 -14 -9 3 -4 1 -8 -5 -8 -9 0 -14 -18 -26 -97 l-7 -43 -304 0
-304 0 0 140 c0 118 -2 140 -15 140 -13 0 -15 -22 -15 -140 l0 -140 -175 0
-175 0 0 130 c0 109 2 130 15 130 12 0 15 18 15 100 l0 100 -80 0 -80 0 0
-100 c0 -82 3 -100 15 -100 13 0 15 -21 15 -130 l0 -130 -190 0 -190 0 0 130
c0 109 2 130 15 130 12 0 15 18 15 100 l0 100 -75 0 -75 0 0 -230 0 -230 -201
2 -202 3 -38 125 -39 125 2 -125 3 -125 -257 -3 -257 -2 36 -68 c59 -110 93
-130 108 -63 4 17 10 29 15 26 15 -10 70 -201 79 -281 19 -159 -23 -296 -122
-397 -107 -108 -232 -152 -421 -146 -103 4 -117 7 -180 38 -99 48 -206 154
-251 245 -43 88 -65 173 -64 246 l0 55 22 -55 c13 -32 41 -75 69 -104 26 -27
47 -50 45 -51 -1 -2 -15 -9 -31 -17 l-29 -15 49 -36 c27 -20 69 -43 93 -52 54
-18 153 -19 204 -1 20 8 37 10 37 6 0 -24 -52 -79 -98 -102 -45 -23 -50 -27
-31 -33 25 -8 84 2 120 20 15 8 52 37 83 66 31 28 56 47 56 42 0 -5 -11 -37
-25 -71 -33 -81 -33 -95 0 -80 33 15 68 70 99 158 15 41 29 82 33 90 9 23 31
-56 32 -115 1 -59 11 -78 37 -73 32 6 44 47 44 148 -1 52 -1 100 0 105 1 6 16
-35 34 -90 l32 -100 22 42 c24 46 28 101 11 168 -19 74 -6 87 26 25 27 -51 29
-53 35 -30 14 53 -9 144 -52 207 -58 85 -179 143 -298 143 -169 0 -320 -90
-437 -261 -25 -38 -51 -69 -56 -69 -5 0 -8 26 -5 60 3 48 10 67 36 99 l31 39
-61 12 c-74 14 -66 22 44 46 90 19 110 35 83 64 -10 11 -34 24 -54 31 -56 18
-57 26 -3 34 40 5 60 2 107 -18 55 -23 95 -25 95 -6 0 18 -37 45 -93 69 -137
60 -2 50 180 -12 35 -12 66 -18 70 -14 4 4 -1 22 -12 41 l-18 35 -212 0 -213
0 -26 -35 c-76 -99 -113 -239 -103 -385 16 -223 125 -398 305 -488 325 -162
687 -32 784 283 29 91 28 221 0 320 -12 38 -19 71 -18 73 8 7 103 -109 123
-149 60 -121 66 -240 18 -399 -13 -47 -28 -108 -31 -136 l-6 -51 78 -42 c86
-46 114 -68 114 -86 0 -6 14 -27 30 -45 18 -20 30 -45 30 -61 0 -15 4 -39 10
-53 11 -31 -4 -80 -23 -73 -6 2 -19 -10 -27 -26 -17 -33 -52 -62 -90 -72 -24
-7 -24 -6 8 27 17 19 32 42 32 51 0 9 8 25 18 35 13 13 17 29 14 55 -6 51 -19
55 -19 6 0 -29 -8 -50 -30 -77 -33 -41 -98 -70 -129 -58 -16 7 -14 10 16 19
28 10 41 24 66 72 18 33 40 68 50 78 10 9 12 17 6 17 -6 0 -15 12 -18 26 -8
30 -40 45 -84 39 -18 -2 -41 0 -52 4 -19 7 -19 8 7 40 15 17 26 33 24 35 -2 2
-27 13 -55 25 l-51 22 -49 -30 c-26 -17 -55 -31 -64 -31 -26 0 -110 -31 -110
-40 0 -21 24 -19 70 6 80 43 67 22 -14 -25 -149 -85 -279 -117 -445 -108 -58
3 -118 9 -133 13 -26 6 -28 4 -28 -24 0 -63 32 -206 59 -265 15 -34 47 -83 70
-109 111 -124 348 -167 641 -116 182 32 407 32 507 0 138 -43 233 -153 233
-269 0 -78 -30 -126 -105 -167 -26 -15 -27 -16 -5 -10 73 19 140 105 140 179
0 120 -125 258 -275 301 -50 14 -84 16 -205 10 -80 -3 -206 -13 -280 -21 -161
-17 -319 -19 -392 -4 -62 13 -182 69 -220 103 -50 45 -98 117 -114 172 -9 31
-14 57 -12 60 3 2 20 -4 39 -13 19 -9 57 -22 84 -29 l50 -11 -28 -13 c-21 -10
-27 -20 -25 -38 5 -44 26 -47 157 -27 89 13 126 16 143 8 23 -11 23 -11 -7
-17 -75 -17 -89 -22 -99 -39 -9 -15 -6 -23 17 -43 39 -33 77 -31 172 12 117
52 113 52 111 8 -1 -34 2 -39 31 -47 29 -9 45 -4 145 46 120 59 208 86 175 53
-54 -54 26 -87 123 -52 28 11 76 17 125 17 83 0 185 -17 185 -30 0 -5 -19 -16
-42 -25 l-43 -17 57 -24 c59 -24 172 -95 223 -139 l30 -26 -55 2 c-30 1 -55 0
-55 -3 0 -3 24 -38 54 -78 54 -74 60 -92 21 -71 -12 6 -23 10 -25 8 -2 -2 2
-27 7 -57 12 -59 1 -144 -28 -218 -20 -51 -30 -54 -39 -13 -9 43 -20 45 -43 6
-19 -32 -97 -84 -109 -73 -2 3 3 19 12 37 l16 31 -48 -8 c-124 -21 -246 5
-363 78 -44 28 -45 29 -15 28 17 0 63 -4 104 -8 101 -10 199 2 258 32 27 14
54 31 60 39 58 72 -22 221 -142 261 -101 35 -180 22 -492 -82 -263 -88 -384
-98 -546 -42 -155 54 -304 167 -371 284 -58 99 -96 252 -117 474 -10 105 -11
109 -42 132 -63 48 -155 150 -201 224 -99 159 -142 337 -133 557 8 192 39 299
126 430 23 34 41 71 41 83 0 36 -54 -35 -105 -138 -119 -242 -136 -537 -44
-795 17 -47 33 -94 35 -105 5 -18 4 -18 -14 3 -11 12 -37 53 -58 90 -20 37
-45 77 -55 90 l-18 23 -17 -33 c-15 -30 -18 -31 -25 -13 -14 36 -9 74 22 179
24 83 28 109 19 125 -12 24 -37 27 -75 9 -62 -28 -39 37 46 130 71 78 79 95
55 127 -11 15 -25 19 -65 17 -28 -1 -51 1 -51 4 0 19 48 67 103 103 113 73
159 157 102 183 -21 9 -32 8 -63 -8 -20 -10 -40 -20 -44 -22 -16 -8 15 57 38
79 13 12 68 44 121 70 83 40 93 48 66 48 -24 1 -40 11 -70 45 -62 71 -117 179
-137 269 -4 15 -11 27 -16 27 -14 0 -60 -83 -60 -109 0 -12 -4 -20 -9 -17 -18
11 -18 60 0 129 24 92 24 107 0 107 -27 0 -80 -66 -93 -117 -14 -49 -28 -47
-28 3 0 36 20 81 70 161 30 47 39 83 21 83 -11 0 -81 -72 -117 -121 l-24 -33
0 27 c0 41 42 117 101 181 28 31 49 60 45 63 -9 9 -49 -12 -90 -47 -65 -57
-35 0 43 83 22 23 30 37 20 37 -28 0 -85 -48 -129 -109 -51 -71 -63 -66 -25 9
31 62 93 131 144 162 20 11 46 30 59 41 28 26 29 57 2 57 -23 0 -115 -44 -125
-60 -4 -6 -11 -8 -16 -4 -15 9 62 78 139 123 77 45 90 57 74 73 -6 6 -31 4
-72 -7 -34 -9 -69 -15 -79 -13 -28 6 68 54 154 78 44 12 88 29 98 38 17 15 17
17 2 28 -15 11 -69 11 -123 -2 -32 -7 -20 11 21 33 19 10 68 19 122 22 88 6
90 7 90 31 0 23 -4 25 -55 30 l-55 6 30 13 c17 8 53 14 82 15 41 0 50 3 41 13
-6 7 -22 13 -37 13 -14 0 -32 4 -40 9 -22 14 59 23 109 12 82 -18 55 8 -35 34
-83 23 -144 57 -187 102 -40 41 -68 98 -67 135 l0 23 17 -25 c9 -14 35 -45 57
-68z m1095 -620 c14 -16 46 -59 72 -95 51 -70 108 -107 165 -107 39 0 80 34
122 99 32 50 79 81 121 81 31 0 88 -29 105 -54 25 -34 17 -42 -13 -12 -61 57
-145 38 -189 -44 -45 -82 -84 -110 -153 -110 -65 0 -129 39 -246 149 -35 34
-80 69 -99 78 -42 20 -44 28 -7 42 43 17 94 5 122 -27z m2809 27 c39 -14 39
-23 0 -39 -17 -7 -71 -51 -121 -96 -182 -168 -290 -178 -376 -34 -33 55 -78
90 -118 90 -12 0 -38 -11 -59 -25 -47 -33 -57 -25 -18 14 68 68 166 44 225
-54 78 -130 177 -113 298 52 78 107 97 117 169 92z m-3213 -378 c41 -19 74
-54 74 -79 0 -10 -7 -8 -25 6 -14 11 -46 23 -72 27 -27 4 -56 14 -66 23 -17
15 -17 16 5 29 30 16 36 16 84 -6z m3573 8 c17 -6 31 -14 31 -18 0 -13 -38
-29 -84 -36 -25 -4 -57 -16 -71 -27 -29 -23 -33 -9 -8 29 13 19 72 57 99 63 1
0 15 -5 33 -11z m241 -127 c21 -26 27 -86 10 -112 -8 -12 -10 -10 -10 10 0 14
-14 43 -30 64 -36 47 -40 77 -10 69 11 -3 29 -17 40 -31z m-3490 -1063 c36 -5
85 -20 109 -32 57 -29 135 -115 154 -172 l16 -45 -50 41 c-27 23 -51 40 -54
38 -2 -3 3 -25 12 -50 21 -59 13 -82 -24 -72 -16 5 -62 8 -103 8 -121 -1 -207
-49 -282 -158 -22 -31 -108 -52 -171 -42 -60 10 -147 51 -147 70 0 8 22 62 50
119 95 200 216 290 410 305 8 0 44 -4 80 -10z m3064 -15 c113 -40 206 -132
272 -271 64 -133 63 -141 -11 -172 -110 -46 -235 -29 -269 37 -22 42 -66 78
-131 109 -48 22 -74 27 -135 28 -41 0 -90 -4 -107 -8 -31 -8 -33 -7 -33 18 0
14 7 42 15 62 8 19 15 37 15 39 0 12 -23 -1 -64 -37 l-47 -41 20 53 c37 97
146 183 256 200 63 9 165 2 219 -17z m-2614 -910 c-13 -34 -14 -31 21 -39 17
-4 27 -11 22 -15 -9 -9 -116 -41 -121 -36 -8 8 33 88 51 101 31 21 38 19 27
-11z m1983 4 c22 -20 52 -86 44 -94 -4 -5 -111 27 -120 36 -5 4 5 11 22 15 35
8 34 5 21 39 -12 32 1 33 33 4z m-1852 -80 c3 -25 -3 -41 -23 -69 -35 -47
-112 -66 -155 -39 -17 11 -17 11 0 6 27 -9 72 19 97 59 30 48 78 74 81 43z
m1768 -43 c39 -51 54 -60 91 -55 11 1 12 -1 4 -10 -15 -15 -66 -16 -102 -1
-60 25 -102 121 -53 121 11 0 36 -23 60 -55z"/>
<path d="M4698 7963 c-25 -4 -28 -8 -28 -44 0 -28 4 -39 15 -39 12 0 15 -17
15 -95 0 -158 33 -199 160 -199 128 0 160 41 160 204 0 60 4 100 10 100 6 0
10 18 10 40 l0 40 -85 0 -85 0 0 -40 c0 -22 4 -40 9 -40 10 0 24 -181 15 -204
-4 -10 -15 -16 -28 -14 -19 3 -22 12 -29 98 -5 63 -5 101 2 112 6 10 11 34 11
53 l0 35 -62 -1 c-35 -1 -75 -4 -90 -6z"/>
<path d="M5050 7931 c0 -31 4 -41 16 -41 11 0 14 -5 10 -16 -3 -9 -6 -58 -6
-110 0 -77 -3 -94 -15 -94 -11 0 -15 -11 -15 -40 l0 -40 79 0 c44 0 86 -3 95
-6 11 -4 17 4 22 31 6 35 2 44 -27 57 -8 4 2 78 10 78 4 0 16 -6 26 -14 17
-12 19 -25 17 -85 l-3 -71 73 0 c40 0 117 -3 171 -7 l97 -6 0 36 c0 19 -5 37
-11 39 -8 3 -9 35 -3 113 8 95 12 110 27 113 15 3 18 0 13 -16 -6 -17 -1 -20
35 -24 34 -3 43 0 47 14 6 26 32 22 31 -4 0 -13 -6 -63 -13 -113 -9 -75 -14
-90 -28 -87 -12 2 -19 -7 -24 -33 -3 -20 -4 -38 -1 -41 3 -3 47 -11 99 -18
101 -14 108 -12 108 37 0 17 -5 27 -15 27 -8 0 -15 6 -15 13 0 14 17 137 25
185 7 37 32 44 37 10 2 -18 10 -24 39 -26 l37 -3 7 51 c4 29 3 55 -1 59 -10 9
-346 53 -352 46 -2 -2 -8 -19 -13 -37 l-8 -33 3 33 c3 39 5 39 -101 47 l-83 6
0 -40 c0 -23 5 -41 10 -41 7 0 9 -27 5 -77 -10 -128 -14 -143 -35 -143 -16 0
-20 7 -20 30 0 17 -9 39 -21 51 -21 21 -21 21 -1 42 43 48 32 136 -21 164 -25
14 -63 18 -169 21 l-138 4 0 -41z m208 -53 c16 -16 15 -44 -3 -62 -25 -24 -45
-9 -45 35 0 31 4 39 18 39 10 0 23 -5 30 -12z"/>
<path d="M4423 7936 c-69 -33 -88 -67 -88 -166 0 -58 5 -84 21 -110 42 -72
128 -103 226 -80 82 19 98 33 98 84 0 70 -5 76 -65 76 l-54 0 -3 -37 c-3 -33
-7 -38 -30 -41 -33 -4 -37 9 -41 123 l-2 80 28 3 c24 3 28 -1 34 -28 6 -32 6
-32 59 -28 30 3 56 7 58 9 2 2 1 30 -1 61 -5 56 -6 58 -42 68 -63 18 -141 12
-198 -14z"/>
<path d="M4125 7916 c-148 -21 -150 -21 -153 -47 -2 -15 4 -34 15 -44 25 -25
55 -235 33 -235 -5 0 -10 8 -10 19 0 62 -41 104 -115 116 -76 12 -85 15 -85
31 0 13 7 15 38 11 20 -4 54 -4 75 0 37 6 37 6 31 42 -9 54 -28 64 -104 58
-159 -13 -231 -94 -170 -194 19 -32 38 -41 134 -60 22 -5 41 -14 44 -21 5 -17
-27 -27 -48 -15 -16 11 -94 3 -107 -11 -3 -3 -2 -25 3 -48 l9 -43 76 0 c90 1
158 24 194 67 l25 30 6 -30 c6 -27 9 -30 38 -26 17 3 89 13 159 23 70 10 130
20 132 23 2 2 -1 36 -7 76 -11 79 -13 80 -87 66 -31 -6 -32 -8 -26 -44 6 -35
5 -38 -22 -43 -34 -6 -34 -7 -40 41 -5 34 -2 41 16 47 11 3 21 10 21 15 0 22
-14 40 -30 40 -17 0 -30 26 -30 63 0 12 8 17 29 17 24 0 30 -5 35 -30 5 -25
10 -30 33 -29 16 1 39 4 53 8 25 6 25 7 17 79 -6 44 -13 72 -20 71 -7 -1 -79
-11 -162 -23z"/>
<path d="M6015 7854 c-3 -21 -3 -40 2 -43 5 -3 23 -46 41 -96 31 -89 34 -135
7 -135 -13 0 -31 -67 -21 -77 3 -3 43 -13 90 -23 l86 -17 6 33 c3 19 2 40 -3
47 -6 6 -7 22 -4 34 7 27 122 163 137 163 14 0 24 23 24 56 0 24 0 24 -77 39
-16 3 -36 8 -45 11 -13 4 -19 -4 -27 -33 -6 -22 -7 -39 -1 -43 5 -3 -1 -20
-12 -38 -16 -25 -23 -30 -29 -20 -12 17 -11 62 0 74 5 5 11 23 13 39 3 30 2
30 -72 47 -107 23 -107 23 -115 -18z"/>
<path d="M2977 6823 c-19 -19 15 -143 39 -143 17 0 17 17 2 92 -11 53 -24 69
-41 51z"/>
<path d="M6989 6760 c-7 -39 -9 -73 -5 -77 12 -12 35 21 47 68 13 50 8 79 -15
79 -10 0 -18 -22 -27 -70z"/>
<path d="M2912 6793 c-17 -30 39 -156 60 -135 11 11 -30 152 -43 152 -5 0 -12
-8 -17 -17z"/>
<path d="M3495 6785 c53 -46 73 -57 95 -50 44 14 -13 64 -81 71 l-44 5 30 -26z"/>
<path d="M6455 6796 c-17 -7 -36 -21 -44 -30 -13 -15 -13 -19 0 -27 8 -5 19
-9 25 -9 13 0 94 62 94 72 0 12 -41 9 -75 -6z"/>
<path d="M7052 6742 c-26 -82 -26 -82 -6 -82 19 0 56 82 52 117 -6 48 -24 34
-46 -35z"/>
<path d="M2857 6773 c-13 -12 -7 -44 18 -93 14 -28 32 -50 40 -50 21 0 19 12
-14 85 -30 67 -33 70 -44 58z"/>
<path d="M7110 6716 c-34 -74 -36 -86 -15 -86 14 0 43 48 65 105 6 17 5 27 -6
35 -12 11 -19 2 -44 -54z"/>
<path d="M2784 6725 c-7 -18 72 -125 92 -125 21 0 18 8 -28 77 -43 65 -55 74
-64 48z"/>
<path d="M7164 6678 c-49 -78 -49 -78 -31 -78 21 0 101 106 93 125 -10 26 -22
17 -62 -47z"/>
<path d="M3820 6712 c0 -24 8 -32 26 -25 19 7 18 16 -6 31 -17 10 -20 10 -20
-6z"/>
<path d="M6164 6715 c-16 -13 -17 -16 -4 -24 11 -8 17 -5 23 11 10 27 5 31
-19 13z"/>
<path d="M2720 6671 c0 -43 101 -124 125 -100 6 6 -11 29 -45 64 -57 58 -80
68 -80 36z"/>
<path d="M7211 6636 c-61 -62 -61 -87 -1 -56 40 21 80 67 80 94 0 29 -25 17
-79 -38z"/>
<path d="M2671 6626 c-8 -10 -5 -19 14 -40 28 -31 110 -70 125 -61 18 11 10
22 -31 40 -22 10 -51 31 -64 47 -27 32 -29 33 -44 14z"/>
<path d="M7298 6617 c-9 -13 -37 -34 -62 -48 -25 -13 -46 -27 -46 -32 0 -32
91 2 136 50 19 20 21 29 13 39 -15 19 -21 17 -41 -9z"/>
<path d="M2630 6576 c-21 -21 -8 -38 55 -67 64 -30 95 -34 102 -13 2 7 -13 14
-36 18 -25 4 -52 18 -75 39 -24 23 -39 30 -46 23z"/>
<path d="M7349 6564 c-17 -21 -83 -54 -109 -54 -23 0 -27 -18 -5 -26 18 -7
103 22 134 45 15 11 20 23 15 34 -8 21 -18 22 -35 1z"/>
<path d="M2590 6502 c0 -51 147 -110 164 -66 9 23 8 24 -21 24 -31 0 -107 32
-117 49 -11 17 -26 13 -26 -7z"/>
<path d="M7372 6495 c-19 -13 -54 -27 -78 -31 -34 -5 -44 -10 -40 -21 3 -8 6
-17 6 -19 0 -7 34 -4 72 6 47 13 99 56 91 75 -7 19 -11 18 -51 -10z"/>
<path d="M2566 6452 c-15 -14 -4 -41 22 -50 48 -19 121 -34 137 -28 29 11 15
23 -34 30 -27 3 -65 17 -84 30 -19 14 -38 22 -41 18z"/>
<path d="M7425 6450 c-12 -19 -87 -50 -123 -50 -22 0 -32 -4 -30 -12 7 -20 37
-20 108 -1 46 13 66 23 68 37 5 23 -13 43 -23 26z"/>
<path d="M7431 6367 c-24 -14 -52 -21 -88 -22 -58 0 -72 -18 -27 -35 39 -15
71 -12 114 10 30 16 40 26 40 45 0 14 -1 25 -2 24 -2 0 -18 -10 -37 -22z"/>
<path d="M2540 6361 c0 -41 96 -74 153 -52 40 15 36 41 -5 35 -29 -5 -69 4
-130 31 -14 5 -18 2 -18 -14z"/>
<path d="M2523 6295 c-10 -28 6 -44 53 -51 62 -9 138 6 142 28 3 14 -5 16 -55
11 -41 -4 -69 -1 -96 11 -33 13 -39 13 -44 1z"/>
<path d="M7440 6292 c-24 -9 -54 -13 -93 -9 -49 4 -58 3 -55 -11 4 -21 46 -31
119 -28 67 3 87 15 73 44 -8 18 -12 18 -44 4z"/>
<path d="M2517 6210 c-7 -28 6 -39 54 -45 56 -7 142 22 147 49 3 16 0 18 -19
12 -47 -14 -118 -18 -147 -8 -26 9 -31 8 -35 -8z"/>
<path d="M7291 6214 c6 -28 109 -60 158 -48 29 7 37 14 39 36 3 27 2 27 -28
16 -31 -10 -101 -7 -149 8 -19 6 -22 4 -20 -12z"/>
<path d="M2680 6158 c-26 -14 -51 -18 -97 -16 -59 4 -63 3 -63 -18 0 -12 7
-25 16 -28 43 -17 130 3 171 39 38 32 19 47 -27 23z"/>
<path d="M7284 6168 c-10 -16 38 -55 84 -67 74 -21 122 -12 122 23 0 21 -4 22
-58 18 -46 -3 -68 0 -100 17 -29 15 -43 18 -48 9z"/>
<path d="M2684 6094 c-26 -15 -58 -24 -92 -25 -47 -2 -52 -5 -52 -24 0 -29 24
-35 82 -20 58 14 118 54 118 78 0 21 -5 21 -56 -9z"/>
<path d="M7270 6100 c0 -39 151 -102 183 -76 8 6 17 19 20 28 5 15 -1 17 -48
17 -41 -1 -66 5 -101 25 -56 31 -54 31 -54 6z"/>
<path d="M3090 6080 c0 -5 9 -10 20 -10 11 0 20 5 20 10 0 6 -9 10 -20 10 -11
0 -20 -4 -20 -10z"/>
<path d="M6880 6080 c0 -5 9 -10 20 -10 11 0 20 5 20 10 0 6 -9 10 -20 10 -11
0 -20 -4 -20 -10z"/>
<path d="M3160 6068 c0 -26 24 -38 73 -38 71 0 48 25 -40 45 -25 5 -33 3 -33
-7z"/>
<path d="M6786 6065 c-63 -22 -67 -35 -10 -35 50 0 74 12 74 37 0 16 -14 16
-64 -2z"/>
<path d="M2724 6049 c-29 -32 -70 -50 -119 -52 -46 -2 -49 -4 -39 -31 9 -23
41 -20 109 13 64 30 101 63 90 80 -9 16 -20 13 -41 -10z"/>
<path d="M7245 6059 c-11 -16 25 -48 87 -80 64 -32 103 -37 112 -13 10 26 7
32 -13 27 -31 -8 -99 16 -135 47 -37 33 -42 35 -51 19z"/>
<path d="M2759 5991 c-48 -37 -136 -81 -163 -81 -24 0 -25 -2 -16 -20 16 -30
51 -25 138 19 86 43 105 60 96 85 -8 21 -26 20 -55 -3z"/>
<path d="M7196 5993 c-9 -22 16 -45 91 -83 85 -43 128 -49 142 -21 11 19 9 21
-15 21 -27 0 -115 44 -163 81 -29 23 -47 24 -55 2z"/>
<path d="M3044 5938 l11 -42 5 39 5 40 39 -59 c53 -83 54 -86 17 -86 -35 0
-100 29 -120 54 -12 14 -10 16 10 16 21 0 20 2 -13 25 -53 36 -52 39 -33 -47
5 -27 4 -28 -38 -28 -49 0 -92 22 -63 33 9 4 16 17 16 32 0 22 -3 24 -17 14
-10 -6 -30 -27 -45 -47 l-28 -35 0 -233 0 -232 51 -56 c33 -37 63 -59 87 -66
20 -5 107 -10 193 -10 l157 0 6 83 c4 45 9 108 12 140 l6 58 -88 -3 -88 -3
-10 -49 c-13 -58 -33 -74 -73 -60 l-28 9 -3 190 c-3 206 -3 205 55 205 29 0
33 -3 38 -37 11 -66 8 -64 97 -61 l83 3 -3 60 c-6 140 -14 195 -28 195 -17 0
-16 3 -5 -38 15 -49 2 -71 -17 -31 -23 47 -66 69 -138 69 l-61 0 11 -42z"/>
<path d="M3350 5901 c0 -70 2 -79 20 -84 19 -5 20 -14 20 -206 0 -194 -1 -201
-20 -201 -18 0 -20 -7 -20 -80 l0 -80 269 0 268 0 6 83 c4 45 7 101 7 125 l0
43 -87 -3 -87 -3 -9 -42 -8 -43 -55 0 -54 0 0 70 0 70 85 0 85 0 0 70 0 70
-85 0 -85 0 0 65 0 65 50 0 50 0 6 -40 7 -40 89 0 89 0 -5 53 c-3 28 -8 82
-11 120 l-7 67 -259 0 -259 0 0 -79z"/>
<path d="M3950 5900 c0 -64 3 -80 15 -80 13 0 15 -29 15 -205 0 -176 -2 -205
-15 -205 -12 0 -15 -16 -15 -80 l0 -81 106 3 105 3 -1 235 c0 129 -3 253 -6
275 -8 59 9 26 39 -75 14 -47 49 -165 79 -262 l53 -178 158 0 157 0 0 285 c0
247 2 285 15 285 12 0 15 16 15 80 l0 80 -107 0 -106 0 6 -247 c3 -140 2 -241
-2 -233 -5 8 -39 120 -77 248 l-67 232 -184 0 -183 0 0 -80z"/>
<path d="M4707 5913 c-4 -38 -7 -99 -7 -136 l0 -68 62 3 63 3 8 53 c5 28 12
52 17 52 5 0 15 3 24 6 14 5 16 -17 16 -205 0 -181 -2 -211 -15 -211 -12 0
-15 -16 -15 -80 l0 -80 140 0 140 0 0 80 c0 64 -3 80 -15 80 -13 0 -15 30 -15
211 0 188 2 210 16 205 9 -3 19 -6 24 -6 5 0 12 -24 17 -52 l8 -53 63 -3 62
-3 0 136 0 135 -294 0 -293 0 -6 -67z"/>
<path d="M5340 5900 c0 -64 3 -80 15 -80 13 0 15 -29 15 -205 0 -176 -2 -205
-15 -205 -12 0 -15 -16 -15 -80 l0 -80 125 0 125 0 0 140 0 140 48 0 c76 0 77
-2 80 -150 l4 -131 126 3 127 3 3 78 c3 71 1 77 -17 77 -18 0 -20 8 -23 68
l-3 67 -52 34 -51 34 46 31 47 31 3 91 c3 87 1 93 -25 124 -15 19 -48 46 -72
62 l-45 28 -223 0 -223 0 0 -80z m352 -97 c20 -18 24 -73 8 -104 -8 -15 -22
-19 -60 -19 l-50 0 0 70 0 70 42 0 c24 0 49 -7 60 -17z"/>
<path d="M5640 5750 c0 -11 5 -20 10 -20 6 0 10 9 10 20 0 11 -4 20 -10 20 -5
0 -10 -9 -10 -20z"/>
<path d="M6141 5928 c-6 -29 -29 -147 -51 -263 -51 -267 -48 -255 -65 -255
-12 0 -15 -16 -15 -80 l0 -80 115 0 c101 0 115 2 115 17 0 9 5 45 11 80 l11
63 64 0 63 0 6 -32 c3 -18 9 -53 13 -78 l8 -45 114 0 115 0 3 78 c3 70 1 77
-16 77 -21 0 -27 27 -104 448 l-22 122 -177 0 -178 0 -10 -52z m209 -234 c11
-65 20 -122 20 -126 0 -5 -21 -8 -46 -8 -38 0 -45 3 -40 18 2 9 12 68 22 130
9 62 18 111 20 109 3 -2 13 -58 24 -123z"/>
<path d="M6680 5900 c0 -73 2 -80 20 -80 19 0 20 -7 20 -205 0 -200 -1 -205
-20 -205 -19 0 -21 -5 -18 -77 l3 -78 257 -3 258 -2 4 22 c3 13 7 76 10 141
l6 117 -84 0 -84 0 -7 -47 c-9 -62 -19 -73 -66 -73 l-39 0 0 205 c0 176 2 205
15 205 8 0 15 6 15 13 0 11 -10 11 -50 3 -27 -5 -52 -7 -56 -4 -6 7 60 123 77
133 5 4 9 -10 9 -29 0 -20 5 -36 10 -36 6 0 10 18 10 40 l0 40 -56 0 c-67 0
-116 -26 -136 -70 -14 -33 -28 -40 -23 -12 2 9 6 32 9 50 l6 32 -45 0 -45 0 0
-80z"/>
<path d="M7170 5931 c-8 -16 -6 -21 9 -26 11 -3 35 -18 53 -33 19 -15 58 -38
87 -52 l53 -24 20 24 20 25 -36 7 c-43 9 -108 41 -152 74 -37 29 -41 29 -54 5z"/>
<path d="M2731 5893 c-24 -15 -64 -32 -88 -38 l-44 -11 19 -24 20 -24 48 22
c35 17 55 34 71 63 12 21 21 39 20 39 -1 -1 -22 -13 -46 -27z"/>
<path d="M7109 5871 c-16 -28 -16 -28 12 -29 37 -1 118 -37 125 -56 3 -8 21
-27 41 -41 33 -26 35 -26 48 -9 19 25 18 32 -3 38 -10 4 -59 33 -108 66 -49
33 -91 60 -94 60 -3 0 -12 -13 -21 -29z"/>
<path d="M2693 5783 c-37 -19 -38 -22 -19 -49 14 -19 15 -19 40 5 14 14 26 33
26 43 0 22 -5 22 -47 1z"/>
<path d="M6600 5751 c0 -34 15 -49 24 -25 11 28 6 54 -9 54 -10 0 -15 -10 -15
-29z"/>
<path d="M6637 5705 c-18 -38 -23 -95 -8 -95 18 0 41 51 41 90 0 49 -11 51
-33 5z"/>
<path d="M3061 5684 c0 -11 3 -14 6 -6 3 7 2 16 -1 19 -3 4 -6 -2 -5 -13z"/>
<path d="M3822 5664 c2 -19 17 -36 56 -60 l52 -34 0 60 0 60 -56 0 c-54 0 -55
-1 -52 -26z"/>
<path d="M3276 5648 c9 -30 34 -68 44 -68 14 0 17 24 8 58 -7 25 -14 32 -34
32 -22 0 -24 -3 -18 -22z"/>
<path d="M6990 5657 c0 -19 62 -66 100 -77 17 -5 30 -7 30 -5 0 4 -93 74 -117
89 -8 4 -13 2 -13 -7z"/>
<path d="M3214 5646 c-13 -33 0 -61 30 -64 25 -3 28 -1 21 15 -4 10 -10 28
-12 41 -6 25 -31 30 -39 8z"/>
<path d="M3147 5606 c-7 -18 1 -26 25 -26 11 0 18 7 18 20 0 23 -35 28 -43 6z"/>
<path d="M6649 5586 c-18 -25 -11 -70 9 -57 8 5 12 22 10 44 -3 34 -3 35 -19
13z"/>
<path d="M3055 5495 c0 -14 3 -25 8 -25 4 0 7 11 7 25 0 14 -3 25 -7 25 -5 0
-8 -11 -8 -25z"/>
<path d="M3650 5480 c0 -11 5 -20 10 -20 6 0 10 9 10 20 0 11 -4 20 -10 20 -5
0 -10 -9 -10 -20z"/>
<path d="M2775 5301 c-3 -6 -1 -19 4 -30 17 -31 103 -102 120 -99 26 5 24 34
-4 46 -14 6 -45 30 -69 52 -25 24 -47 37 -51 31z"/>
<path d="M2737 5241 c-16 -28 -16 -29 19 -65 19 -20 49 -43 65 -52 57 -29 83
7 29 39 -16 10 -42 35 -57 55 -15 20 -30 40 -33 44 -3 4 -13 -5 -23 -21z"/>
<path d="M7250 5233 c0 -26 -4 -33 -20 -33 -25 0 -99 -51 -100 -68 -1 -41 95
-2 137 56 22 30 22 31 3 54 l-19 23 -1 -32z"/>
<path d="M3551 5160 c37 -46 51 -49 73 -18 32 45 22 58 -44 58 l-61 0 32 -40z"/>
<path d="M6370 5182 c0 -23 28 -62 45 -62 7 0 28 18 45 40 l32 40 -61 0 c-52
0 -61 -3 -61 -18z"/>
<path d="M7090 5190 c0 -19 29 -22 52 -6 22 16 22 16 -15 16 -20 0 -37 -5 -37
-10z"/>
<path d="M2699 5166 c-16 -33 -7 -50 42 -86 45 -32 89 -39 108 -17 9 11 3 18
-29 32 -23 10 -56 36 -75 57 l-35 38 -11 -24z"/>
<path d="M7266 5153 c-17 -19 -49 -44 -73 -56 -33 -16 -40 -24 -31 -34 19 -23
64 -15 110 20 46 35 57 62 36 88 -12 15 -16 13 -42 -18z"/>
<path d="M2666 5103 c-3 -3 -6 -19 -6 -34 0 -30 31 -58 96 -85 35 -15 39 -15
51 2 19 26 16 32 -16 39 -16 3 -50 24 -74 45 -24 22 -47 36 -51 33z"/>
<path d="M7290 5068 c-24 -21 -57 -42 -72 -45 -29 -6 -34 -18 -19 -42 10 -16
39 -9 98 25 52 30 65 52 50 81 -12 21 -13 20 -57 -19z"/>
<path d="M2636 5002 c-4 -11 -4 -26 -1 -34 8 -20 72 -55 118 -63 32 -6 37 -5
37 11 0 11 -12 26 -28 35 -15 8 -48 28 -74 43 -44 26 -47 26 -52 8z"/>
<path d="M7292 4977 c-50 -28 -72 -47 -72 -60 0 -17 5 -19 32 -13 85 17 141
64 121 100 -7 12 -21 7 -81 -27z"/>
<path d="M2623 4915 c-16 -44 45 -85 126 -85 24 0 31 4 31 20 0 13 -9 21 -27
25 -16 3 -49 17 -76 30 -41 22 -48 23 -54 10z"/>
<path d="M7355 4920 c-11 -17 -65 -41 -96 -42 -24 -1 -29 -5 -29 -25 0 -20 5
-23 35 -23 53 0 114 28 121 56 9 35 -15 61 -31 34z"/>
<path d="M2620 4807 c0 -28 28 -42 96 -50 85 -10 86 33 3 51 -30 7 -64 15 -76
18 -19 5 -23 2 -23 -19z"/>
<path d="M7355 4825 c-5 -2 -36 -11 -67 -20 -37 -10 -58 -21 -58 -30 0 -16 8
-19 60 -16 64 3 100 20 100 47 0 22 -10 28 -35 19z"/>
<path d="M2632 4717 c3 -29 6 -32 43 -37 67 -9 110 2 113 28 3 20 0 22 -52 22
-30 0 -67 4 -81 10 -25 10 -26 9 -23 -23z"/>
<path d="M7355 4739 c-11 -4 -46 -8 -78 -8 -55 -1 -58 -2 -55 -23 3 -21 9 -23
68 -26 75 -3 93 5 88 40 -2 21 -7 24 -23 17z"/>
<path d="M2640 4638 c0 -33 28 -48 78 -41 64 8 92 20 92 38 0 8 -3 15 -7 15
-135 6 -163 4 -163 -12z"/>
<path d="M7204 4651 c-2 -2 -4 -10 -4 -18 0 -16 29 -28 91 -37 50 -7 79 8 79
42 0 15 -12 17 -81 17 -44 0 -82 -2 -85 -4z"/>
<path d="M2790 4580 c-8 -5 -41 -10 -72 -10 -60 0 -66 -6 -47 -41 9 -17 17
-20 52 -14 80 12 108 25 105 48 -4 24 -17 30 -38 17z"/>
<path d="M7187 4584 c-4 -4 -7 -15 -7 -25 0 -19 34 -33 107 -44 40 -6 44 -5
53 20 5 14 10 28 10 30 0 2 -28 5 -62 7 -35 2 -70 7 -79 11 -8 4 -18 4 -22 1z"/>
<path d="M2812 4503 c-18 -7 -53 -14 -78 -15 -47 -2 -60 -23 -29 -48 27 -23
165 14 165 44 0 26 -23 34 -58 19z"/>
<path d="M7151 4507 c-21 -21 -11 -35 38 -56 78 -33 131 -25 131 20 0 13 -10
17 -44 17 -25 1 -60 8 -79 16 -26 10 -38 11 -46 3z"/>
<path d="M2861 4434 c-12 -9 -49 -18 -81 -21 -57 -6 -58 -6 -48 -29 8 -16 20
-24 37 -24 33 0 131 49 131 66 0 21 -15 24 -39 8z"/>
<path d="M7116 4443 c-16 -16 -2 -33 46 -57 67 -34 101 -34 116 -1 11 25 11
25 -34 25 -25 0 -62 9 -83 20 -21 10 -41 16 -45 13z"/>
<path d="M2885 4370 c-16 -11 -49 -22 -72 -26 -41 -6 -51 -17 -35 -40 19 -29
61 -18 130 34 56 42 36 71 -23 32z"/>
<path d="M7075 4380 c-9 -15 0 -25 52 -59 51 -34 97 -40 107 -15 11 28 7 32
-37 38 -23 4 -57 15 -75 26 -38 23 -39 23 -47 10z"/>
<path d="M2950 4333 c0 -15 -65 -52 -104 -60 l-38 -8 20 -25 c19 -24 21 -24
54 -9 50 24 98 68 98 90 0 10 -7 19 -15 19 -8 0 -15 -3 -15 -7z"/>
<path d="M7030 4321 c0 -22 48 -66 97 -89 26 -12 35 -13 48 -2 25 21 17 35
-27 47 -24 7 -55 24 -70 38 -32 30 -48 32 -48 6z"/>
<path d="M6981 4286 c-11 -13 -6 -23 34 -65 52 -55 79 -69 100 -51 23 19 18
28 -27 51 -24 11 -54 34 -69 51 -22 26 -27 28 -38 14z"/>
<path d="M2987 4266 c-9 -13 -39 -34 -67 -47 -50 -22 -50 -23 -31 -42 12 -12
26 -17 39 -13 27 9 115 104 107 116 -11 17 -32 11 -48 -14z"/>
<path d="M3042 4225 c-7 -14 -32 -39 -56 -57 -41 -28 -44 -33 -28 -44 26 -21
37 -17 75 25 42 47 60 78 52 91 -11 18 -32 11 -43 -15z"/>
<path d="M6925 4240 c-8 -13 25 -67 64 -104 28 -27 33 -28 56 -16 27 14 33 30
12 30 -19 0 -85 58 -92 80 -7 21 -30 27 -40 10z"/>
<path d="M3104 4198 c-3 -11 -25 -41 -47 -65 -33 -36 -38 -46 -26 -54 33 -21
51 -8 89 63 24 44 25 64 6 71 -9 4 -18 -2 -22 -15z"/>
<path d="M6881 4211 c-18 -12 -9 -44 26 -98 32 -50 44 -56 70 -38 17 13 16 16
-21 53 -21 21 -44 51 -50 65 -8 19 -15 24 -25 18z"/>
<path d="M3136 4114 c-32 -53 -36 -68 -25 -75 19 -12 25 -11 42 6 20 19 50
111 42 125 -12 19 -21 10 -59 -56z"/>
<path d="M6814 4166 c-8 -20 38 -130 56 -133 8 -2 21 1 29 6 11 7 7 21 -25 75
-39 67 -50 77 -60 52z"/>
<path d="M3207 4094 c-28 -71 -27 -84 3 -84 18 0 29 23 44 92 6 27 -1 58 -13
58 -4 0 -20 -30 -34 -66z"/>
<path d="M6756 4144 c-6 -16 -2 -44 16 -101 9 -32 39 -45 52 -24 6 10 -44 141
-55 141 -4 0 -10 -7 -13 -16z"/>
<path d="M3276 4077 c-21 -72 -20 -87 4 -87 26 0 42 40 38 94 -4 59 -24 55
-42 -7z"/>
<path d="M6697 4123 c-9 -8 -9 -61 -1 -102 5 -25 12 -31 32 -31 22 0 24 3 18
32 -19 95 -31 120 -49 101z"/>
<path d="M3346 4073 c-11 -70 -8 -93 13 -93 16 0 21 9 26 44 4 24 4 53 0 65
-10 34 -32 24 -39 -16z"/>
<path d="M6626 4094 c-15 -38 -2 -114 20 -114 22 0 26 19 19 76 -6 54 -26 73
-39 38z"/>
<path d="M3417 4094 c-4 -4 -7 -29 -7 -56 0 -35 4 -50 16 -55 28 -10 38 12 28
63 -9 45 -22 62 -37 48z"/>
<path d="M6559 4073 c-16 -43 -8 -88 16 -88 23 0 30 29 20 81 -7 41 -22 44
-36 7z"/>
<path d="M3480 4039 c0 -47 2 -50 23 -47 17 2 21 9 20 28 -5 49 -14 70 -28 70
-11 0 -15 -13 -15 -51z"/>
<path d="M3550 4068 c0 -38 12 -68 26 -68 33 0 28 62 -6 80 -17 9 -20 8 -20
-12z"/>
<path d="M3616 4063 c9 -38 13 -43 30 -43 21 0 17 47 -5 60 -29 15 -32 13 -25
-17z"/>
<path d="M3684 4074 c3 -9 6 -20 6 -25 0 -11 11 -11 28 -1 18 12 4 42 -20 42
-14 0 -18 -5 -14 -16z"/>
<path d="M6283 4074 c-3 -9 0 -20 8 -25 18 -11 29 -11 29 0 0 5 3 16 6 25 4
12 0 16 -15 16 -12 0 -24 -7 -28 -16z"/>
<path d="M6368 4079 c-22 -12 -24 -59 -4 -59 17 0 21 5 30 43 7 29 1 32 -26
16z"/>
<path d="M6426 4068 c-20 -29 -20 -57 -1 -65 21 -8 26 -1 32 46 6 46 -7 54
-31 19z"/>
<path d="M6497 4073 c-17 -62 -17 -74 -1 -80 21 -8 34 13 34 60 0 39 -24 54
-33 20z"/>
<path d="M2547 3366 c-106 -38 -151 -102 -152 -216 0 -92 23 -146 97 -219 45
-45 154 -111 182 -111 6 0 56 88 111 195 55 107 102 195 106 195 14 0 101 -64
125 -93 67 -79 92 -194 60 -270 -7 -18 -72 -133 -145 -256 -90 -153 -130 -229
-126 -242 9 -26 231 -249 350 -351 386 -329 982 -707 1627 -1033 131 -67 197
-95 222 -95 25 0 91 28 218 92 565 284 1154 650 1522 944 199 160 432 384 460
443 6 15 -17 61 -101 202 -182 306 -183 308 -183 375 0 65 28 136 74 191 24
28 111 93 125 93 3 0 51 -88 106 -195 55 -107 105 -195 111 -195 6 0 38 14 71
30 79 39 148 110 186 188 27 57 29 70 24 128 -8 80 -36 132 -90 168 -58 37
-111 49 -192 43 -119 -9 -225 -68 -298 -165 -205 -276 -385 -477 -595 -665
-270 -241 -577 -436 -855 -544 -83 -32 -303 -171 -313 -198 -3 -6 34 -122 81
-259 47 -136 85 -249 85 -252 0 -2 -89 63 -198 145 -110 82 -208 155 -220 162
-19 12 -39 -1 -233 -149 -118 -88 -215 -160 -216 -158 -2 1 35 114 82 250 47
136 85 251 85 256 0 22 -229 166 -335 210 -506 211 -964 586 -1369 1120 -76
99 -122 151 -159 175 -98 67 -240 93 -330 61z m4239 -972 c-14 -48 -24 -89
-22 -91 2 -3 39 -27 82 -54 l78 -49 -74 -1 c-41 -1 -82 -1 -92 0 -22 3 -28 -9
-53 -108 l-21 -85 -33 90 -32 91 -52 -4 c-29 -2 -72 -5 -96 -7 l-45 -4 40 34
c21 18 54 44 71 56 18 13 33 28 33 34 0 6 -11 37 -24 70 -45 113 -46 111 37
53 86 -60 79 -61 172 24 28 25 51 44 53 42 2 -1 -8 -42 -22 -91z m-3505 24
c31 -26 60 -48 64 -48 5 0 41 22 82 50 40 27 73 46 73 41 0 -5 -13 -41 -30
-79 -16 -39 -30 -77 -30 -84 1 -7 32 -37 70 -67 39 -30 70 -55 70 -57 0 -2
-69 2 -152 10 l-36 4 -33 -91 -33 -91 -21 85 c-12 48 -25 91 -29 98 -5 7 -41
11 -99 11 l-92 1 70 44 c39 24 75 47 82 52 12 7 2 57 -33 165 -8 26 3 20 77
-44z m728 -400 c-10 -46 -19 -87 -19 -93 0 -5 37 -30 83 -55 l82 -45 -95 -10
-95 -10 -16 -95 -16 -95 -37 79 c-20 43 -36 82 -36 87 0 12 -18 11 -112 -5
-43 -7 -78 -11 -78 -10 0 1 30 31 66 66 l66 64 -41 82 c-23 45 -41 84 -41 86
0 3 37 -17 83 -44 l82 -49 65 65 c36 35 68 64 71 64 3 0 -2 -37 -12 -82z
m2192 -2 c44 24 81 44 84 44 3 0 -14 -37 -36 -83 l-42 -83 58 -55 c31 -30 61
-55 66 -57 5 -2 9 -7 9 -11 0 -5 -37 -2 -82 5 -99 16 -108 17 -108 5 0 -5 -17
-44 -37 -87 l-36 -79 -16 95 -16 95 -95 10 -95 10 75 43 c41 23 79 43 84 45 4
1 1 38 -8 81 -9 43 -16 85 -16 94 0 11 25 -8 66 -49 l66 -66 79 43z"/>
<path d="M2805 2949 l-98 -192 90 5 c99 4 152 25 211 81 28 27 32 37 32 82 0
63 -36 141 -86 185 -19 16 -38 30 -43 30 -4 0 -52 -86 -106 -191z"/>
<path d="M7038 3081 c-72 -80 -89 -175 -42 -231 45 -53 117 -83 212 -88 45 -2
82 -1 82 3 0 20 -186 365 -196 365 -7 0 -32 -22 -56 -49z"/>
</g>
</svg>
